<mxfile host="app.diagrams.net" modified="2024-03-12T15:33:41.274Z" agent="Mozilla/5.0 (X11; Linux x86_64) AppleWebKit/537.36 (KHTML, like Gecko) Chrome/122.0.0.0 Safari/537.36" etag="qtk-93TmhKatVIuOQJKK" version="24.0.0" type="google">
  <diagram name="PÃ¡gina-1" id="LkZ_BvBzG33LXQS2Zz2u">
    <mxGraphModel grid="1" page="1" gridSize="10" guides="1" tooltips="1" connect="1" arrows="1" fold="1" pageScale="1" pageWidth="827" pageHeight="1169" math="0" shadow="0">
      <root>
        <mxCell id="0" />
        <mxCell id="1" parent="0" />
        <mxCell id="WBmNxw1tUeBrfchPVIIG-1" value="SchoolPackage&lt;div&gt;&lt;br&gt;&lt;/div&gt;&lt;div&gt;&lt;br&gt;&lt;/div&gt;&lt;div&gt;&lt;br&gt;&lt;/div&gt;&lt;div&gt;&lt;br&gt;&lt;/div&gt;&lt;div&gt;&lt;br&gt;&lt;/div&gt;&lt;div&gt;&lt;br&gt;&lt;/div&gt;&lt;div&gt;&lt;br&gt;&lt;/div&gt;&lt;div&gt;&lt;br&gt;&lt;/div&gt;&lt;div&gt;&lt;br&gt;&lt;/div&gt;&lt;div&gt;&lt;br&gt;&lt;/div&gt;&lt;div&gt;&lt;br&gt;&lt;/div&gt;&lt;div&gt;&lt;br&gt;&lt;/div&gt;&lt;div&gt;&lt;br&gt;&lt;/div&gt;&lt;div&gt;&lt;br&gt;&lt;/div&gt;&lt;div&gt;&lt;br&gt;&lt;/div&gt;&lt;div&gt;&lt;br&gt;&lt;/div&gt;&lt;div&gt;&lt;br&gt;&lt;/div&gt;&lt;div&gt;&lt;br&gt;&lt;/div&gt;&lt;div&gt;&lt;br&gt;&lt;/div&gt;&lt;div&gt;&lt;br&gt;&lt;/div&gt;&lt;div&gt;&lt;br&gt;&lt;/div&gt;&lt;div&gt;&lt;br&gt;&lt;/div&gt;&lt;div&gt;&lt;br&gt;&lt;/div&gt;&lt;div&gt;&lt;br&gt;&lt;/div&gt;&lt;div&gt;&lt;br&gt;&lt;/div&gt;&lt;div&gt;&lt;br&gt;&lt;/div&gt;&lt;div&gt;&lt;br&gt;&lt;/div&gt;&lt;div&gt;&lt;br&gt;&lt;/div&gt;&lt;div&gt;&lt;br&gt;&lt;/div&gt;&lt;div&gt;&lt;br&gt;&lt;/div&gt;&lt;div&gt;&lt;br&gt;&lt;/div&gt;&lt;div&gt;&lt;br&gt;&lt;/div&gt;" style="shape=folder;fontStyle=1;spacingTop=10;tabWidth=40;tabHeight=14;tabPosition=left;html=1;whiteSpace=wrap;" vertex="1" parent="1">
          <mxGeometry x="-10" width="1130" height="520" as="geometry" />
        </mxCell>
        <mxCell id="WBmNxw1tUeBrfchPVIIG-2" value="Classroom" style="swimlane;fontStyle=1;align=center;verticalAlign=top;childLayout=stackLayout;horizontal=1;startSize=26;horizontalStack=0;resizeParent=1;resizeParentMax=0;resizeLast=0;collapsible=1;marginBottom=0;whiteSpace=wrap;html=1;" vertex="1" parent="1">
          <mxGeometry x="380" y="50" width="160" height="228" as="geometry" />
        </mxCell>
        <mxCell id="WBmNxw1tUeBrfchPVIIG-3" value="&lt;div&gt;- students:ArrayList&amp;lt;Student&amp;gt;&lt;/div&gt;&lt;div&gt;- id:int&lt;/div&gt;" style="text;strokeColor=none;fillColor=none;align=left;verticalAlign=top;spacingLeft=4;spacingRight=4;overflow=hidden;rotatable=0;points=[[0,0.5],[1,0.5]];portConstraint=eastwest;whiteSpace=wrap;html=1;" vertex="1" parent="WBmNxw1tUeBrfchPVIIG-2">
          <mxGeometry y="26" width="160" height="54" as="geometry" />
        </mxCell>
        <mxCell id="WBmNxw1tUeBrfchPVIIG-4" value="" style="line;strokeWidth=1;fillColor=none;align=left;verticalAlign=middle;spacingTop=-1;spacingLeft=3;spacingRight=3;rotatable=0;labelPosition=right;points=[];portConstraint=eastwest;strokeColor=inherit;" vertex="1" parent="WBmNxw1tUeBrfchPVIIG-2">
          <mxGeometry y="80" width="160" height="8" as="geometry" />
        </mxCell>
        <mxCell id="WBmNxw1tUeBrfchPVIIG-5" value="&lt;div&gt;+ Classroom(int id)&lt;/div&gt;&lt;div&gt;+ getId(): int&lt;/div&gt;&lt;div&gt;+ getStudents(): ArrayList&amp;lt;Students&amp;gt;&lt;/div&gt;&lt;div&gt;+ addStudent(Student student)&lt;/div&gt;&lt;div&gt;+ removeStudent(Student student)&lt;/div&gt;&lt;div&gt;+ toString(): String&lt;/div&gt;" style="text;strokeColor=none;fillColor=none;align=left;verticalAlign=top;spacingLeft=4;spacingRight=4;overflow=hidden;rotatable=0;points=[[0,0.5],[1,0.5]];portConstraint=eastwest;whiteSpace=wrap;html=1;" vertex="1" parent="WBmNxw1tUeBrfchPVIIG-2">
          <mxGeometry y="88" width="160" height="140" as="geometry" />
        </mxCell>
        <mxCell id="WBmNxw1tUeBrfchPVIIG-6" value="Subject" style="swimlane;fontStyle=1;align=center;verticalAlign=top;childLayout=stackLayout;horizontal=1;startSize=26;horizontalStack=0;resizeParent=1;resizeParentMax=0;resizeLast=0;collapsible=1;marginBottom=0;whiteSpace=wrap;html=1;" vertex="1" parent="1">
          <mxGeometry x="730" y="50" width="160" height="198" as="geometry" />
        </mxCell>
        <mxCell id="WBmNxw1tUeBrfchPVIIG-7" value="&lt;div&gt;- name:String&lt;/div&gt;&lt;div&gt;- teacher:Teacher&lt;/div&gt;" style="text;strokeColor=none;fillColor=none;align=left;verticalAlign=top;spacingLeft=4;spacingRight=4;overflow=hidden;rotatable=0;points=[[0,0.5],[1,0.5]];portConstraint=eastwest;whiteSpace=wrap;html=1;" vertex="1" parent="WBmNxw1tUeBrfchPVIIG-6">
          <mxGeometry y="26" width="160" height="44" as="geometry" />
        </mxCell>
        <mxCell id="WBmNxw1tUeBrfchPVIIG-8" value="" style="line;strokeWidth=1;fillColor=none;align=left;verticalAlign=middle;spacingTop=-1;spacingLeft=3;spacingRight=3;rotatable=0;labelPosition=right;points=[];portConstraint=eastwest;strokeColor=inherit;" vertex="1" parent="WBmNxw1tUeBrfchPVIIG-6">
          <mxGeometry y="70" width="160" height="8" as="geometry" />
        </mxCell>
        <mxCell id="WBmNxw1tUeBrfchPVIIG-9" value="&lt;div&gt;+ Subject(String name, Teacher teacher)&lt;/div&gt;&lt;div&gt;+ getName(): String&lt;/div&gt;&lt;div&gt;+ getTeacher(): Teacher&lt;/div&gt;&lt;div&gt;+ setTeacher(Teacher teacher)&lt;/div&gt;&lt;div&gt;+ toString(): Strong&lt;/div&gt;" style="text;strokeColor=none;fillColor=none;align=left;verticalAlign=top;spacingLeft=4;spacingRight=4;overflow=hidden;rotatable=0;points=[[0,0.5],[1,0.5]];portConstraint=eastwest;whiteSpace=wrap;html=1;" vertex="1" parent="WBmNxw1tUeBrfchPVIIG-6">
          <mxGeometry y="78" width="160" height="120" as="geometry" />
        </mxCell>
        <mxCell id="WBmNxw1tUeBrfchPVIIG-10" value="Schedule" style="swimlane;fontStyle=1;align=center;verticalAlign=top;childLayout=stackLayout;horizontal=1;startSize=26;horizontalStack=0;resizeParent=1;resizeParentMax=0;resizeLast=0;collapsible=1;marginBottom=0;whiteSpace=wrap;html=1;" vertex="1" parent="1">
          <mxGeometry x="920" y="50" width="160" height="370" as="geometry" />
        </mxCell>
        <mxCell id="WBmNxw1tUeBrfchPVIIG-11" value="&lt;div&gt;- day:String&lt;/div&gt;&lt;div&gt;- time:String&lt;/div&gt;&lt;div&gt;- subject:Subject&lt;/div&gt;&lt;div&gt;- classroom:Classroom&lt;/div&gt;" style="text;strokeColor=none;fillColor=none;align=left;verticalAlign=top;spacingLeft=4;spacingRight=4;overflow=hidden;rotatable=0;points=[[0,0.5],[1,0.5]];portConstraint=eastwest;whiteSpace=wrap;html=1;" vertex="1" parent="WBmNxw1tUeBrfchPVIIG-10">
          <mxGeometry y="26" width="160" height="64" as="geometry" />
        </mxCell>
        <mxCell id="WBmNxw1tUeBrfchPVIIG-12" value="" style="line;strokeWidth=1;fillColor=none;align=left;verticalAlign=middle;spacingTop=-1;spacingLeft=3;spacingRight=3;rotatable=0;labelPosition=right;points=[];portConstraint=eastwest;strokeColor=inherit;" vertex="1" parent="WBmNxw1tUeBrfchPVIIG-10">
          <mxGeometry y="90" width="160" height="8" as="geometry" />
        </mxCell>
        <mxCell id="WBmNxw1tUeBrfchPVIIG-13" value="&lt;div&gt;+ Schedule(String day, String time, Subject subject, Classroom classroom)&lt;/div&gt;&lt;div&gt;+ getDay(): String&lt;/div&gt;&lt;div&gt;+ getTime(): String&lt;/div&gt;&lt;div&gt;+ getSubject(): Subject&lt;/div&gt;&lt;div&gt;+ getClassroom(): Classroom&lt;/div&gt;&lt;div&gt;+ setDay(String day)&lt;/div&gt;&lt;div&gt;+ setTime(String time)&lt;/div&gt;&lt;div&gt;+ setSubject(Subject subject)&lt;/div&gt;&lt;div&gt;+ setClassroom(Classroom classroom)&lt;/div&gt;&lt;div&gt;+ addScheduleToTeacher(Teacher teacher)&lt;/div&gt;&lt;div&gt;+ addScheduleToClassroom(Classroom classroom)&lt;/div&gt;&lt;div&gt;+ toString(): String&lt;/div&gt;" style="text;strokeColor=none;fillColor=none;align=left;verticalAlign=top;spacingLeft=4;spacingRight=4;overflow=hidden;rotatable=0;points=[[0,0.5],[1,0.5]];portConstraint=eastwest;whiteSpace=wrap;html=1;" vertex="1" parent="WBmNxw1tUeBrfchPVIIG-10">
          <mxGeometry y="98" width="160" height="272" as="geometry" />
        </mxCell>
        <mxCell id="WBmNxw1tUeBrfchPVIIG-14" value="Grade" style="swimlane;fontStyle=1;align=center;verticalAlign=top;childLayout=stackLayout;horizontal=1;startSize=26;horizontalStack=0;resizeParent=1;resizeParentMax=0;resizeLast=0;collapsible=1;marginBottom=0;whiteSpace=wrap;html=1;" vertex="1" parent="1">
          <mxGeometry x="550" y="50" width="160" height="238" as="geometry" />
        </mxCell>
        <mxCell id="WBmNxw1tUeBrfchPVIIG-15" value="&lt;div&gt;- subject:Subject&lt;/div&gt;&lt;div&gt;- grade:double&lt;/div&gt;&lt;div&gt;- student:Student&lt;/div&gt;" style="text;strokeColor=none;fillColor=none;align=left;verticalAlign=top;spacingLeft=4;spacingRight=4;overflow=hidden;rotatable=0;points=[[0,0.5],[1,0.5]];portConstraint=eastwest;whiteSpace=wrap;html=1;" vertex="1" parent="WBmNxw1tUeBrfchPVIIG-14">
          <mxGeometry y="26" width="160" height="54" as="geometry" />
        </mxCell>
        <mxCell id="WBmNxw1tUeBrfchPVIIG-16" value="" style="line;strokeWidth=1;fillColor=none;align=left;verticalAlign=middle;spacingTop=-1;spacingLeft=3;spacingRight=3;rotatable=0;labelPosition=right;points=[];portConstraint=eastwest;strokeColor=inherit;" vertex="1" parent="WBmNxw1tUeBrfchPVIIG-14">
          <mxGeometry y="80" width="160" height="8" as="geometry" />
        </mxCell>
        <mxCell id="WBmNxw1tUeBrfchPVIIG-17" value="&lt;div&gt;+ Grade(Subject subject, double grade, Student student)&lt;/div&gt;&lt;div&gt;+ getStudent(): Student&lt;/div&gt;&lt;div&gt;+ getGrade(): double&lt;/div&gt;&lt;div&gt;+ getStudent(): Student&lt;/div&gt;&lt;div&gt;+ setSubject(Subject subject)&lt;/div&gt;&lt;div&gt;+ setGrade(double grade)&lt;/div&gt;&lt;div&gt;+ toString(): String&lt;/div&gt;" style="text;strokeColor=none;fillColor=none;align=left;verticalAlign=top;spacingLeft=4;spacingRight=4;overflow=hidden;rotatable=0;points=[[0,0.5],[1,0.5]];portConstraint=eastwest;whiteSpace=wrap;html=1;" vertex="1" parent="WBmNxw1tUeBrfchPVIIG-14">
          <mxGeometry y="88" width="160" height="150" as="geometry" />
        </mxCell>
        <mxCell id="WBmNxw1tUeBrfchPVIIG-18" value="Teacher" style="swimlane;fontStyle=1;align=center;verticalAlign=top;childLayout=stackLayout;horizontal=1;startSize=26;horizontalStack=0;resizeParent=1;resizeParentMax=0;resizeLast=0;collapsible=1;marginBottom=0;whiteSpace=wrap;html=1;" vertex="1" parent="1">
          <mxGeometry x="200" y="50" width="160" height="390" as="geometry" />
        </mxCell>
        <mxCell id="WBmNxw1tUeBrfchPVIIG-19" value="&lt;div&gt;- name:String&lt;/div&gt;&lt;div&gt;- subject:Subject&lt;/div&gt;&lt;div&gt;- classrooms:ArrayList&amp;lt;Classroom&amp;gt;&lt;/div&gt;&lt;div&gt;- id:int&lt;/div&gt;&lt;div&gt;- schedule:ArrayList&amp;lt;Schedule&amp;gt;&lt;/div&gt;" style="text;strokeColor=none;fillColor=none;align=left;verticalAlign=top;spacingLeft=4;spacingRight=4;overflow=hidden;rotatable=0;points=[[0,0.5],[1,0.5]];portConstraint=eastwest;whiteSpace=wrap;html=1;" vertex="1" parent="WBmNxw1tUeBrfchPVIIG-18">
          <mxGeometry y="26" width="160" height="104" as="geometry" />
        </mxCell>
        <mxCell id="WBmNxw1tUeBrfchPVIIG-20" value="" style="line;strokeWidth=1;fillColor=none;align=left;verticalAlign=middle;spacingTop=-1;spacingLeft=3;spacingRight=3;rotatable=0;labelPosition=right;points=[];portConstraint=eastwest;strokeColor=inherit;" vertex="1" parent="WBmNxw1tUeBrfchPVIIG-18">
          <mxGeometry y="130" width="160" height="8" as="geometry" />
        </mxCell>
        <mxCell id="WBmNxw1tUeBrfchPVIIG-21" value="&lt;div&gt;+ Teacher(String name, int id)&lt;/div&gt;&lt;div&gt;+ getName(): String&lt;/div&gt;&lt;div&gt;+ getId(): int&lt;/div&gt;&lt;div&gt;+ getClassrooms(): ArrayList&amp;lt;Classroom&amp;gt;&lt;/div&gt;&lt;div&gt;+ getSchedule(): ArrayList&amp;lt;Schedule&amp;gt;&lt;/div&gt;&lt;div&gt;+ getSubject(): Subject&lt;/div&gt;&lt;div&gt;+ setSubject(Subject subject)&lt;/div&gt;&lt;div&gt;+ addClassroom(Classroom classroom)&lt;/div&gt;&lt;div&gt;+ addSchedule(Schedule schedule)&lt;/div&gt;&lt;div&gt;+ toString(): String&lt;/div&gt;" style="text;strokeColor=none;fillColor=none;align=left;verticalAlign=top;spacingLeft=4;spacingRight=4;overflow=hidden;rotatable=0;points=[[0,0.5],[1,0.5]];portConstraint=eastwest;whiteSpace=wrap;html=1;" vertex="1" parent="WBmNxw1tUeBrfchPVIIG-18">
          <mxGeometry y="138" width="160" height="252" as="geometry" />
        </mxCell>
        <mxCell id="WBmNxw1tUeBrfchPVIIG-22" value="Student" style="swimlane;fontStyle=1;align=center;verticalAlign=top;childLayout=stackLayout;horizontal=1;startSize=26;horizontalStack=0;resizeParent=1;resizeParentMax=0;resizeLast=0;collapsible=1;marginBottom=0;whiteSpace=wrap;html=1;" vertex="1" parent="1">
          <mxGeometry y="50" width="186" height="428" as="geometry" />
        </mxCell>
        <mxCell id="WBmNxw1tUeBrfchPVIIG-23" value="&lt;div&gt;- name:String&lt;/div&gt;&lt;div&gt;- grades:ArrayList&amp;lt;Grade&amp;gt;&lt;/div&gt;&lt;div&gt;- meanGrade: double&lt;/div&gt;&lt;div&gt;- id:int&lt;/div&gt;&lt;div&gt;- classroom:Classroom&lt;/div&gt;&lt;div&gt;-schedule:ArrayList&amp;lt;Schedule&amp;gt;&lt;/div&gt;" style="text;strokeColor=none;fillColor=none;align=left;verticalAlign=top;spacingLeft=4;spacingRight=4;overflow=hidden;rotatable=0;points=[[0,0.5],[1,0.5]];portConstraint=eastwest;whiteSpace=wrap;html=1;" vertex="1" parent="WBmNxw1tUeBrfchPVIIG-22">
          <mxGeometry y="26" width="186" height="114" as="geometry" />
        </mxCell>
        <mxCell id="WBmNxw1tUeBrfchPVIIG-24" value="" style="line;strokeWidth=1;fillColor=none;align=left;verticalAlign=middle;spacingTop=-1;spacingLeft=3;spacingRight=3;rotatable=0;labelPosition=right;points=[];portConstraint=eastwest;strokeColor=inherit;" vertex="1" parent="WBmNxw1tUeBrfchPVIIG-22">
          <mxGeometry y="140" width="186" height="8" as="geometry" />
        </mxCell>
        <mxCell id="WBmNxw1tUeBrfchPVIIG-25" value="&lt;div&gt;+ Student(String name, int id, Classroom classroom)&lt;/div&gt;&lt;div&gt;+ getName():String&lt;/div&gt;&lt;div&gt;+ getGrades():ArrayList&amp;lt;Grade&amp;gt;&lt;/div&gt;&lt;div&gt;+ getMeanGrade(): double&lt;/div&gt;&lt;div&gt;+ getId():int&lt;/div&gt;&lt;div&gt;+ getClassroom():Classroom&lt;/div&gt;&lt;div&gt;+ getSchedule():ArrayList&amp;lt;Schedule&amp;gt;&lt;/div&gt;&lt;div&gt;+ setClassroom(Classroom classroom)&lt;/div&gt;&lt;div&gt;+ addGrade(Grade grade):&lt;/div&gt;&lt;div&gt;+ addSchedule(Schedule schedule):&lt;/div&gt;&lt;div&gt;+ addStudentToClassroom(Classroom classroom)&lt;/div&gt;&lt;div&gt;+ calcMeanGrade()&lt;/div&gt;&lt;div&gt;+ toString(): String&lt;/div&gt;" style="text;strokeColor=none;fillColor=none;align=left;verticalAlign=top;spacingLeft=4;spacingRight=4;overflow=hidden;rotatable=0;points=[[0,0.5],[1,0.5]];portConstraint=eastwest;whiteSpace=wrap;html=1;" vertex="1" parent="WBmNxw1tUeBrfchPVIIG-22">
          <mxGeometry y="148" width="186" height="280" as="geometry" />
        </mxCell>
      </root>
    </mxGraphModel>
  </diagram>
</mxfile>
